<svg version="1.2" xmlns="http://www.w3.org/2000/svg" viewBox="0 0 64 64" width="64" height="64">
	<style>
		.s0 { fill: none;stroke: #ffffff;stroke-linecap: round;stroke-width: 4 } 
		.s1 { fill: #ffffff;stroke: #ffffff;stroke-linecap: round;stroke-width: 4 } 
		.s2 { fill: #ffffff } 
	</style>
	<g id="SVGRepo_bgCarrier">
	</g>
	<g id="SVGRepo_tracerCarrier">
	</g>
	<g id="SVGRepo_iconCarrier">
		<path class="s0" d="m53.33 16h-45.33"/>
		<path class="s0" d="m26.67 42.67h-18.67"/>
		<path class="s1" d="m24 29.33h-16"/>
		<path class="s2" d="m45.16 41.88c-1.72-1.27-3.91-3.06-5.66-5.06-1.81-2.07-2.83-4-2.83-5.58h-4c0 3.1 1.86 5.98 3.82 8.22 2.02 2.3 4.48 4.3 6.3 5.64zm-8.5-10.64c0-2.95 1.32-4.51 2.68-5.02 1.38-0.51 3.58-0.24 5.89 2.13l2.86-2.8c-3.08-3.15-6.88-4.3-10.15-3.07-3.3 1.23-5.28 4.57-5.28 8.76zm13.88 13.86c1.83-1.34 4.28-3.34 6.3-5.64 1.96-2.24 3.82-5.12 3.82-8.22h-4c0 1.58-1.02 3.51-2.83 5.58-1.75 2-3.94 3.79-5.66 5.06zm-7.76 0c1.05 0.77 2.21 1.73 3.88 1.73v-4c-0.04 0-0.08 0-0.27-0.1-0.26-0.14-0.59-0.37-1.24-0.85zm1.19-1.61l1.19-1.61zm16.69-12.25c0-4.19-1.98-7.53-5.27-8.76-3.28-1.23-7.08-0.08-10.16 3.07l2.86 2.8c2.32-2.37 4.52-2.64 5.89-2.13 1.36 0.51 2.68 2.07 2.68 5.02zm-12.49 10.64c-0.65 0.48-0.98 0.71-1.24 0.85-0.19 0.1-0.23 0.1-0.27 0.1v4c1.67 0 2.84-0.96 3.88-1.73zm-1.51-14.93l-1.43 1.4c0.38 0.38 0.9 0.6 1.43 0.6 0.54 0 1.06-0.22 1.43-0.6zm0 17.88v-2zm2.7-1.34l1.18 1.61z"/>
	</g>
</svg>