<svg version="1.2" xmlns="http://www.w3.org/2000/svg" viewBox="0 0 800 800" width="800" height="800">
	<style>
		.s0 { fill: none;stroke: #000000;stroke-linecap: round;stroke-width: 50 } 
		.s1 { fill: #000000 } 
	</style>
	<g id="SVGRepo_bgCarrier">
	</g>
	<g id="SVGRepo_tracerCarrier">
	</g>
	<g id="SVGRepo_iconCarrier">
		<path class="s0" d="m666.67 200h-566.67"/>
		<path class="s0" d="m333.33 533.33h-233.33"/>
		<path class="s0" d="m300 366.67h-200"/>
		<path class="s1" d="m564.5 523.48c-21.45-15.81-48.92-38.25-70.77-63.21-22.64-25.85-35.4-50.06-35.4-69.78h-50c0 38.7 23.3 74.76 47.78 102.71 25.25 28.85 55.95 53.75 78.73 70.53zm-106.17-132.99c0-36.92 16.48-56.37 33.44-62.71 17.24-6.44 44.73-3 73.7 26.58l35.72-34.98c-38.53-39.35-86.04-53.72-126.93-38.43-41.16 15.39-65.93 57.23-65.93 109.54zm173.5 173.24c22.77-16.78 53.47-41.68 78.73-70.53 24.47-27.95 47.77-64.01 47.77-102.71h-50c0 19.72-12.76 43.93-35.39 69.78-21.86 24.96-49.32 47.4-70.78 63.21zm-96.99 0c13.06 9.63 27.67 21.61 48.5 21.61v-50c-0.5 0-1.06 0.08-3.37-1.17-3.27-1.77-7.37-4.72-15.47-10.69zm14.84-20.12l14.83-20.13zm208.66-153.11c0-52.32-24.77-94.15-65.93-109.54-40.89-15.29-88.4-0.92-126.93 38.43l35.72 34.98c28.97-29.59 56.46-33.03 73.7-26.58 16.96 6.34 33.44 25.78 33.44 62.71zm-156.17 132.99c-8.1 5.97-12.19 8.92-15.46 10.69-2.31 1.25-2.88 1.17-3.37 1.17v50c20.83 0 35.44-11.99 48.5-21.61zm-18.84-186.61l-17.86 17.49c4.7 4.8 11.14 7.51 17.86 7.51 6.73 0 13.16-2.71 17.87-7.51zm0 223.47v-25zm33.66-16.73l14.83 20.12z"/>
	</g>
</svg>